HIERARCHY
ROOT Hips
{
	OFFSET 0.000000 0.000000 0.000000 
	CHANNELS 6 Xposition Yposition Zposition Zrotation Yrotation Xrotation
	JOINT LeftUpLeg
	{
		OFFSET 1.363060 -1.794630 0.839290 
		CHANNELS 3 Zrotation Yrotation Xrotation
		JOINT LeftLeg
		{
			OFFSET 2.448110 -6.726130 0.000000 
			CHANNELS 3 Zrotation Yrotation Xrotation
			JOINT LeftFoot
			{
				OFFSET 2.562200 -7.039590 0.000000 
				CHANNELS 3 Zrotation Yrotation Xrotation
				JOINT LeftToeBase
				{
					OFFSET 0.157640 -0.433110 2.322550 
					CHANNELS 3 Zrotation Yrotation Xrotation
					End Site
					{
						OFFSET 0.000000 0.000000 0.000000 
					}
				}
			}
		}
	}
	JOINT RightUpLeg
	{
		OFFSET -1.305520 -1.794630 0.839290 
		CHANNELS 3 Zrotation Yrotation Xrotation
		JOINT RightLeg
		{
			OFFSET -2.542530 -6.985550 0.000000 
			CHANNELS 3 Zrotation Yrotation Xrotation
			JOINT RightFoot
			{
				OFFSET -2.568260 -7.056230 0.000000 
				CHANNELS 3 Zrotation Yrotation Xrotation
				JOINT RightToeBase
				{
					OFFSET -0.164730 -0.452590 2.363150 
					CHANNELS 3 Zrotation Yrotation Xrotation
					End Site
					{
						OFFSET 0.000000 0.000000 0.000000 
					}
				}
			}
		}
	}
	JOINT Spine
	{
		OFFSET 0.028270 2.035590 -0.193380 
		CHANNELS 3 Zrotation Yrotation Xrotation
		JOINT Spine1
		{
			OFFSET 0.056720 2.048850 -0.042750 
			CHANNELS 3 Zrotation Yrotation Xrotation
			JOINT Neck1
			{
				OFFSET -0.054170 1.746240 0.172020 
				CHANNELS 3 Zrotation Yrotation Xrotation
				JOINT Head
				{
					OFFSET 0.104070 1.761360 -0.123970 
					CHANNELS 3 Zrotation Yrotation Xrotation
					End Site
					{
						OFFSET 0.000000 0.000000 0.000000 
					}
				}
			}
			JOINT LeftArm
			{
				OFFSET 3.362410 1.200890 -0.311210 
				CHANNELS 3 Zrotation Yrotation Xrotation
				JOINT LeftForeArm
				{
					OFFSET 4.983000 -0.000000 -0.000000 
					CHANNELS 3 Zrotation Yrotation Xrotation
					JOINT LeftHand
					{
						OFFSET 3.483560 -0.000000 -0.000000 
						CHANNELS 3 Zrotation Yrotation Xrotation
						JOINT LeftHandIndex1
						{
							OFFSET 0.715260 -0.000000 -0.000000 
							CHANNELS 3 Zrotation Yrotation Xrotation
							End Site
							{
								OFFSET 0.000000 0.000000 0.000000 
							}
						}
					}
				}
			}
			JOINT RightArm
			{
				OFFSET -3.136600 1.374050 -0.404650 
				CHANNELS 3 Zrotation Yrotation Xrotation
				JOINT RightForeArm
				{
					OFFSET -5.241900 -0.000000 -0.000000 
					CHANNELS 3 Zrotation Yrotation Xrotation
					JOINT RightHand
					{
						OFFSET -3.444170 -0.000000 -0.000000 
						CHANNELS 3 Zrotation Yrotation Xrotation
						JOINT RightHandIndex1
						{
							OFFSET -0.622530 -0.000000 -0.000000 
							CHANNELS 3 Zrotation Yrotation Xrotation
							End Site
							{
								OFFSET 0.000000 0.000000 0.000000 
							}
						}
					}
				}
			}
		}
	}
}
MOTION
Frames: 7
Frame Time: 0.041667
-28.372389 17.405898 5.409415 172.064461 24.414551 -175.673146 -41.093438 -18.565339 9.162962 -13.331217 -1.108358 -0.744739 0.030820 1.669772 -4.768973 13.160300 -18.839300 -69.622700 11.962945 0.511780 -13.795598 5.513469 -9.190205 25.098115 -1.176621 -2.989017 -15.893047 -0.722200 5.430200 -15.139700 -2.103344 6.754566 -4.782771 -14.394697 1.778899 -16.127454 1.558610 16.187411 14.168577 -3.014400 9.875500 11.565000 -71.285395 14.688083 20.226382 10.160982 -21.870714 -3.621887 -0.957055 1.463568 7.151875 -7.125000 0.000000 0.000000 79.127697 0.765117 30.561503 -16.521881 32.437684 -5.235867 0.054271 -2.803615 -13.569118 7.125000 0.000000 0.000000 
-28.287995 17.397866 5.457058 172.198926 22.894158 -175.552042 -40.471331 -18.805641 8.767305 -13.243875 -0.928513 -0.393509 0.042343 0.574272 -3.974338 13.167700 -18.841900 -69.645400 12.263531 1.297970 -13.275787 5.506667 -9.426031 25.723043 -1.305820 -2.900762 -16.727778 -0.761800 5.573900 -15.553000 -2.164935 6.706572 -4.750138 -14.535235 1.779461 -16.061053 1.762902 15.869661 14.205377 -2.897600 9.746300 11.573900 -70.663634 14.839650 23.498464 10.657012 -22.472349 -3.748112 -0.908855 1.474059 8.367661 -7.125000 0.000000 0.000000 79.457802 0.449495 28.739664 -18.048712 33.952338 -5.851706 0.172813 -2.828476 -16.230527 7.125000 0.000000 0.000000 
-28.195020 17.386313 5.505801 172.286414 21.220989 -175.481578 -39.914182 -19.107584 8.404993 -13.156991 -0.751106 -0.048380 0.056507 -0.631881 -3.107798 13.174800 -18.844400 -69.667500 12.510004 1.999872 -12.694411 5.461387 -9.629039 26.349208 -1.457843 -2.703462 -17.377672 -0.801900 5.715500 -15.961100 -2.208941 6.592052 -4.714957 -14.570124 1.765562 -16.017229 1.908371 15.525843 14.194903 -2.797000 9.583500 11.552800 -70.248086 14.785035 26.399745 11.157518 -23.012644 -3.822413 -0.870349 1.494000 9.642954 -7.125000 0.000000 0.000000 79.782349 -0.032028 27.285941 -19.700165 35.530523 -6.533187 0.301129 -2.840591 -19.099468 7.125000 0.000000 0.000000 
-28.094232 17.373439 5.555865 172.361816 19.411626 -175.441295 -39.369477 -19.497706 8.064960 -13.070235 -0.578661 0.285488 0.069404 -1.823740 -2.205038 13.184100 -18.847600 -69.696200 12.731592 2.602689 -12.088104 5.375695 -9.818627 27.006043 -1.637306 -2.366890 -17.848339 -0.828100 5.805800 -16.221900 -2.240637 6.454476 -4.682162 -14.568893 1.746649 -16.008920 1.922209 15.080418 14.157420 -2.792800 9.372800 11.542800 -69.985814 14.533889 28.891593 11.598789 -23.493612 -3.909981 -0.831969 1.512614 10.699293 -7.125000 0.000000 0.000000 80.143082 -0.675130 26.148567 -21.331456 37.041684 -7.230328 0.421100 -2.842346 -21.899704 7.125000 0.000000 0.000000 
-27.985412 17.361336 5.606479 172.499516 17.476038 -175.389242 -38.730620 -20.015395 7.726170 -12.975958 -0.416083 0.600935 0.083778 -2.974441 -1.282271 13.200200 -18.853300 -69.746300 13.008871 3.113931 -11.483522 5.263833 -10.017465 27.714155 -1.836918 -1.896959 -18.175689 -0.837600 5.838200 -16.315600 -2.251823 6.292937 -4.650466 -14.469639 1.707806 -16.044970 2.355247 13.463974 14.411593 -2.808900 6.984600 11.644000 -69.934371 14.107667 30.849165 11.945745 -23.875904 -3.987990 -0.798799 1.530222 11.459650 -7.125000 0.000000 0.000000 80.515145 -1.419553 25.382757 -22.802874 38.372468 -7.880181 0.518320 -2.837140 -24.386117 7.125000 0.000000 0.000000 
-27.867790 17.351873 5.656543 172.762949 15.419166 -175.295054 -37.906020 -20.685255 7.377947 -12.865179 -0.267956 0.894798 0.104488 -4.107687 -0.302742 13.211100 -18.857100 -69.780000 13.421226 3.517161 -10.897679 5.140598 -10.238241 28.482013 -2.036565 -1.316008 -18.352201 -0.844300 5.860900 -16.381300 -2.243342 6.134665 -4.620325 -14.380626 1.675717 -16.037895 2.264860 12.975615 14.387036 -2.867800 6.750700 11.650400 -70.115649 13.455815 32.199293 12.158448 -24.124869 -4.040368 -0.771991 1.548552 11.937866 -7.125000 0.000000 0.000000 80.911507 -2.217596 24.995166 -23.982530 39.427664 -8.413556 0.583116 -2.831177 -26.352151 7.125000 0.000000 0.000000 
-27.740705 17.347252 5.705286 173.184238 13.253352 -175.148990 -36.853316 -21.536949 7.010496 -12.738682 -0.132816 1.169277 0.136560 -5.042387 0.683245 13.191700 -18.850300 -69.719700 14.014259 3.791802 -10.336417 5.027015 -10.472718 29.278909 -2.189762 -0.718220 -18.341611 -0.888000 6.006800 -16.804200 -2.223823 6.000922 -4.597625 -14.282940 1.643800 -16.012066 2.333666 12.495899 14.458318 -2.795900 6.506800 11.670200 -70.498022 12.637378 33.064283 12.260927 -24.258068 -4.067656 -0.755321 1.565966 12.119711 -7.125000 0.000000 0.000000 81.359166 -3.042862 24.935436 -24.745670 40.131392 -8.758846 0.614814 -2.832668 -27.580750 7.125000 0.000000 0.000000 
